<svg width="91" height="81" viewBox="0 0 91 81" fill="none" xmlns="http://www.w3.org/2000/svg">
<path d="M36.8203 0.154526C34.8452 0.795109 33.1103 2.34319 32.3896 4.07811C31.9359 5.17245 31.9092 7.89494 32.3362 8.90919C32.5231 9.30956 33.7775 11.605 35.1655 14.0072L37.6478 18.3578L28.6796 33.9454L19.6847 49.533L12.1578 49.6131C5.03127 49.6932 4.60421 49.7198 3.56326 50.2804C2.28209 50.9476 0.86746 52.4957 0.360329 53.7235C-0.12011 54.8712 -0.12011 57.5937 0.360329 58.7414C0.86746 59.9692 2.28209 61.5173 3.56326 62.1846L4.65759 62.7718L30.8949 62.8518C45.3348 62.8785 57.1055 62.8252 57.0522 62.6917C57.0255 62.5849 55.2906 59.5688 53.2353 56.0189L49.4986 49.5597H42.3721C38.4218 49.5597 35.2189 49.5063 35.2189 49.4262C35.2189 49.3462 40.477 40.1911 46.8829 29.061L58.5736 8.85581L58.6536 7.06751C58.707 6.10663 58.6269 4.87885 58.4668 4.37172C58.0397 3.11723 56.465 1.35562 55.1304 0.634964C53.609 -0.165768 50.7531 -0.165768 49.205 0.634964C48.0306 1.27555 46.696 2.6368 46.0288 3.91796C45.7885 4.37172 45.4949 4.7187 45.3615 4.7187C45.228 4.7187 44.9344 4.37172 44.6942 3.91796C44.0269 2.6368 42.6924 1.24886 41.5447 0.661655C40.3702 0.0744514 37.888 -0.192459 36.8203 0.154526Z" fill="white"/>
<path d="M55.6905 24.4967C54.8631 25.8046 49.0978 35.9205 48.8042 36.5344C48.5373 37.1216 49.5782 39.0434 60.2814 57.5937C68.7691 72.3004 72.319 78.2259 73.0397 78.8664C76.6964 82.0961 82.7552 80.1209 83.8229 75.3165C84.3033 73.1012 83.903 71.7666 81.1805 67.0423L78.805 62.9586L82.435 62.8518C85.5311 62.7717 86.2251 62.665 87.1593 62.1845C88.4404 61.5172 89.8551 59.9959 90.3622 58.7414C90.8426 57.5937 90.8426 54.8712 90.3622 53.7235C89.8551 52.4957 88.4404 50.9476 87.1593 50.2803C86.1183 49.7198 85.6379 49.6931 78.5381 49.5596L70.9845 49.4262L63.7512 36.8814C59.7742 29.9684 56.4112 24.2298 56.3044 24.0964C56.1976 23.9896 55.904 24.1498 55.6905 24.4967Z" fill="white"/>
<path d="M8.02089 69.7114C6.81979 71.8467 6.4995 73.4748 6.89986 75.3165C7.72729 79.0533 11.5174 81.2419 15.2542 80.1476C17.3628 79.5337 18.4571 78.3326 21.2063 73.5816C22.4875 71.3129 23.7419 69.1776 23.9555 68.8306L24.3291 68.2434H16.5887H8.84831L8.02089 69.7114Z" fill="white"/>
</svg>
