<svg width="134" height="103" viewBox="0 0 134 103" fill="none" xmlns="http://www.w3.org/2000/svg">
<path d="M37.3413 80.6359C34.8806 80.6359 32.6068 80.2302 30.5199 79.4187C28.433 78.576 26.6264 77.4056 25.1002 75.9075C23.5739 74.4094 22.3747 72.6459 21.5026 70.6172C20.6616 68.5885 20.2411 66.3725 20.2411 63.9693C20.2411 61.566 20.6616 59.3501 21.5026 57.3213C22.3747 55.2926 23.5739 53.5292 25.1002 52.0311C26.6575 50.5329 28.4797 49.3781 30.5666 48.5667C32.6535 47.724 34.9273 47.3026 37.388 47.3026C39.7552 47.3026 41.9823 47.7084 44.0692 48.5198C46.1561 49.3001 47.916 50.4861 49.3488 52.0779L47.1528 54.2783C45.8135 52.905 44.334 51.9218 42.7143 51.3288C41.0946 50.7046 39.3503 50.3925 37.4814 50.3925C35.5191 50.3925 33.697 50.7358 32.015 51.4225C30.333 52.0779 28.869 53.0298 27.6231 54.2783C26.3772 55.4955 25.3961 56.9312 24.6797 58.5854C23.9944 60.2084 23.6518 62.003 23.6518 63.9693C23.6518 65.9356 23.9944 67.7458 24.6797 69.4C25.3961 71.023 26.3772 72.4587 27.6231 73.7071C28.869 74.9243 30.333 75.8763 32.015 76.5629C33.697 77.2183 35.5191 77.5461 37.4814 77.5461C39.3503 77.5461 41.0946 77.2339 42.7143 76.6097C44.334 75.9855 45.8135 74.9868 47.1528 73.6135L49.3488 75.8138C47.916 77.4056 46.1561 78.6072 44.0692 79.4187C41.9823 80.2302 39.7396 80.6359 37.3413 80.6359Z" fill="#DCDDDC"/>
<path d="M72.6677 80.6359C70.207 80.6359 67.9176 80.2302 65.7996 79.4187C63.7127 78.576 61.8905 77.4056 60.3331 75.9075C58.8069 74.3781 57.6077 72.6147 56.7355 70.6172C55.8945 68.5885 55.4741 66.3725 55.4741 63.9693C55.4741 61.566 55.8945 59.3657 56.7355 57.3682C57.6077 55.3394 58.8069 53.576 60.3331 52.0779C61.8905 50.5486 63.7127 49.3781 65.7996 48.5667C67.8865 47.724 70.1758 47.3026 72.6677 47.3026C75.1283 47.3026 77.4021 47.724 79.489 48.5667C81.576 49.3781 83.3825 50.5329 84.9088 52.0311C86.4662 53.5292 87.6654 55.2926 88.5063 57.3213C89.3785 59.3501 89.8146 61.566 89.8146 63.9693C89.8146 66.3725 89.3785 68.5885 88.5063 70.6172C87.6654 72.6459 86.4662 74.4094 84.9088 75.9075C83.3825 77.4056 81.576 78.576 79.489 79.4187C77.4021 80.2302 75.1283 80.6359 72.6677 80.6359ZM72.6677 77.5461C74.63 77.5461 76.4366 77.2183 78.0874 76.5629C79.7694 75.8763 81.2178 74.9243 82.4325 73.7071C83.6784 72.4587 84.644 71.023 85.3293 69.4C86.0145 67.7458 86.3571 65.9356 86.3571 63.9693C86.3571 62.003 86.0145 60.2084 85.3293 58.5854C84.644 56.9312 83.6784 55.4955 82.4325 54.2783C81.2178 53.0298 79.7694 52.0779 78.0874 51.4225C76.4366 50.7358 74.63 50.3925 72.6677 50.3925C70.7053 50.3925 68.8832 50.7358 67.2012 51.4225C65.5192 52.0779 64.0553 53.0298 62.8094 54.2783C61.5946 55.4955 60.629 56.9312 59.9126 58.5854C59.2274 60.2084 58.8847 62.003 58.8847 63.9693C58.8847 65.9044 59.2274 67.699 59.9126 69.3532C60.629 71.0074 61.5946 72.4587 62.8094 73.7071C64.0553 74.9243 65.5192 75.8763 67.2012 76.5629C68.8832 77.2183 70.7053 77.5461 72.6677 77.5461Z" fill="#DCDDDC"/>
<path d="M95.8495 80.355V78.6837L105.367 69.3438C106.239 68.4917 106.893 67.7489 107.329 67.1153C107.765 66.4599 108.059 65.8482 108.212 65.2801C108.365 64.7121 108.441 64.1768 108.441 63.6743C108.441 62.3416 107.983 61.2929 107.067 60.5283C106.173 59.7636 104.843 59.3813 103.077 59.3813C101.726 59.3813 100.526 59.5888 99.4798 60.0039C98.455 60.419 97.5719 61.0635 96.8306 61.9374L95.1627 60.4955C96.0566 59.4468 97.2013 58.6384 98.5967 58.0704C99.9921 57.5024 101.551 57.2183 103.274 57.2183C104.822 57.2183 106.163 57.4696 107.296 57.9721C108.43 58.4527 109.302 59.1628 109.913 60.1022C110.545 61.0417 110.861 62.145 110.861 63.4122C110.861 64.155 110.752 64.8869 110.534 65.6079C110.338 66.3288 109.967 67.0935 109.422 67.9019C108.899 68.6884 108.125 69.5841 107.1 70.5891L98.3678 79.1753L97.7137 78.2577H111.908V80.355H95.8495Z" fill="#DCDDDC"/>
<path d="M111.183 46.444C111.318 42.142 109.863 37.9463 107.107 34.6955C104.352 31.4447 100.5 29.3782 96.3217 28.909C94.4925 20.7791 90.02 13.5268 83.6374 8.34084C77.2548 3.15494 69.3409 0.343205 61.1929 0.3666C41.2812 0.3666 25.0808 16.9545 25.0808 37.3423C25.0808 38.4345 25.1363 39.5466 25.2475 40.6986C10.9193 43.3324 0.0800781 56.3108 0.0800781 71.4737C0.0800781 88.7243 13.7888 102.761 30.6365 102.761H105.639C120.956 102.761 133.417 90.0014 133.417 74.318C133.441 67.7532 131.237 61.3838 127.181 56.2993C123.125 51.2148 117.47 47.7311 111.183 46.444ZM105.639 98.7789H30.6365C16.85 98.7789 3.96907 85.5871 3.96907 71.4737C3.96907 58.245 15.7222 45.3404 28.6003 44.2767L29.9643 44.0264L29.4476 42.6668C29.1411 40.9091 28.9813 39.1278 28.9698 37.3423C28.9698 20.0917 44.3452 4.3486 61.1929 4.3486C76.1739 4.3486 90.4993 17.0398 92.9605 32.1714L93.3633 32.9422L94.1466 32.8398C94.275 32.8417 94.4031 32.8254 94.5272 32.7914C100.655 32.7914 107.305 39.6007 107.305 45.8752C107.305 46.6488 107.222 47.448 107.053 48.2501L108.066 49.6609L109.497 49.9709C114.993 50.506 120.094 54.8316 123.8 59.0206C127.507 63.2096 129.549 68.6658 129.528 74.318C129.528 86.8642 117.892 98.7789 105.639 98.7789Z" fill="#DCDDDC"/>
</svg>
