<svg width="75" height="80" viewBox="0 0 75 80" fill="none" xmlns="http://www.w3.org/2000/svg">
<path d="M7.82298 0.211525C6.64017 0.462933 5 1.10716 5 1.31143C5.01577 1.49998 41.3676 34.9842 41.5883 34.9999C41.683 35.0156 44.506 32.2659 47.8651 28.919L54 22.8067L34.523 12.0905C23.7988 6.21386 14.5887 1.17001 14.0209 0.918606C12.1284 0.0229683 9.84165 -0.228436 7.82298 0.211525Z" fill="white"/>
<path d="M0.875496 5.93541C-0.0311238 7.96214 0.000138946 6.24722 0.000138946 40.078C0.000138946 73.7996 -0.0311238 72.2405 0.844233 74.1581C1.06307 74.6258 1.29754 75 1.36007 75C1.42259 75 9.70722 66.7996 19.7426 56.7906L38 38.5813L19.7582 21.7906C9.72285 12.5612 1.45386 5 1.40696 5C1.34444 5 1.10997 5.42094 0.875496 5.93541Z" fill="white"/>
<path d="M51.5409 32.5522L45 39.1201L50.8333 44.4938C54.0566 47.4478 57.6887 50.7946 58.9151 51.9259L61.1635 54L65.5189 51.596C67.9245 50.2761 70.283 48.9405 70.7704 48.6105C73.3176 46.8979 75 43.7868 75 40.7699C75 37.7531 73.2547 34.5477 70.7075 32.8664C69.6698 32.1908 58.4434 26 58.239 26C58.1604 26 55.1415 28.954 51.5409 32.5522Z" fill="white"/>
<path d="M23.3773 60.3028C8.60164 74.8484 4.81668 78.6524 5.00672 78.7771C5.43431 79.0422 7.2872 79.6814 8.14238 79.8528C9.99527 80.227 12.64 79.8684 14.3979 78.9954C15.5698 78.403 56.8401 55.9999 56.9985 55.8596C57.1093 55.7661 51.0914 50.216 42.3812 42.3586L41.9695 42L23.3773 60.3028Z" fill="white"/>
</svg>
