<svg width="89" height="103" viewBox="0 0 89 103" fill="none" xmlns="http://www.w3.org/2000/svg">
<path d="M33.4674 95.2673H54.968C55.5206 95.2673 56.0505 95.0426 56.4412 94.6425C56.8319 94.2425 57.0514 93.6999 57.0514 93.1341C57.0514 92.5683 56.8319 92.0258 56.4412 91.6257C56.0505 91.2256 55.5206 91.0009 54.968 91.0009H33.4674C32.9148 91.0009 32.3849 91.2256 31.9942 91.6257C31.6035 92.0258 31.384 92.5683 31.384 93.1341C31.384 93.6999 31.6035 94.2425 31.9942 94.6425C32.3849 95.0426 32.9148 95.2673 33.4674 95.2673ZM33.4674 102.655H54.968C55.5206 102.655 56.0505 102.43 56.4412 102.03C56.8319 101.63 57.0514 101.087 57.0514 100.521C57.0514 99.9557 56.8319 99.4131 56.4412 99.013C56.0505 98.613 55.5206 98.3882 54.968 98.3882H33.4674C32.9148 98.3882 32.3849 98.613 31.9942 99.013C31.6035 99.4131 31.384 99.9557 31.384 100.521C31.384 101.087 31.6035 101.63 31.9942 102.03C32.3849 102.43 32.9148 102.655 33.4674 102.655ZM44.2177 10.7599C44.7702 10.7599 45.3002 10.5352 45.6909 10.1351C46.0816 9.73509 46.3011 9.19249 46.3011 8.62673V2.39347C46.3011 1.82771 46.0816 1.28511 45.6909 0.885059C45.3002 0.485003 44.7702 0.260254 44.2177 0.260254C43.6651 0.260254 43.1352 0.485003 42.7445 0.885059C42.3538 1.28511 42.1343 1.82771 42.1343 2.39347V8.62673C42.1343 9.19249 42.3538 9.73509 42.7445 10.1351C43.1352 10.5352 43.6651 10.7599 44.2177 10.7599ZM88.2711 45.3671C88.2711 44.8014 88.0516 44.2588 87.6609 43.8587C87.2702 43.4587 86.7402 43.2339 86.1877 43.2339H80.1C79.5475 43.2339 79.0175 43.4587 78.6268 43.8587C78.2361 44.2588 78.0166 44.8014 78.0166 45.3671C78.0166 45.9329 78.2361 46.4755 78.6268 46.8755C79.0175 47.2756 79.5475 47.5003 80.1 47.5003H86.1877C86.7402 47.5003 87.2702 47.2756 87.6609 46.8755C88.0516 46.4755 88.2711 45.9329 88.2711 45.3671ZM0.164307 45.3671C0.164307 45.9329 0.383807 46.4755 0.774519 46.8755C1.16523 47.2756 1.69515 47.5003 2.2477 47.5003H8.33538C8.88793 47.5003 9.41785 47.2756 9.80857 46.8755C10.1993 46.4755 10.4188 45.9329 10.4188 45.3671C10.4188 44.8014 10.1993 44.2588 9.80857 43.8587C9.41785 43.4587 8.88793 43.2339 8.33538 43.2339H2.2477C1.69515 43.2339 1.16523 43.4587 0.774519 43.8587C0.383807 44.2588 0.164307 44.8014 0.164307 45.3671ZM72.4227 13.4713L68.1184 17.8785C67.9194 18.0753 67.7607 18.3107 67.6515 18.5709C67.5423 18.8312 67.4848 19.1111 67.4824 19.3944C67.48 19.6776 67.5328 19.9585 67.6375 20.2207C67.7423 20.4828 67.897 20.721 68.0926 20.9213C68.2882 21.1216 68.5208 21.28 68.7769 21.3873C69.0329 21.4945 69.3072 21.5485 69.5839 21.546C69.8605 21.5436 70.1339 21.4847 70.3881 21.3729C70.6423 21.2611 70.8721 21.0986 71.0643 20.8949L75.3686 16.4876C75.5676 16.2909 75.7263 16.0555 75.8355 15.7952C75.9447 15.5349 76.0022 15.255 76.0046 14.9718C76.007 14.6885 75.9543 14.4076 75.8495 14.1455C75.7448 13.8833 75.59 13.6451 75.3944 13.4448C75.1988 13.2445 74.9662 13.0861 74.7102 12.9789C74.4541 12.8716 74.1798 12.8176 73.9032 12.8201C73.6265 12.8226 73.3531 12.8814 73.099 12.9932C72.8448 13.105 72.6149 13.2675 72.4227 13.4713ZM13.0668 77.263C13.2598 77.4618 13.4893 77.6195 13.7421 77.7271C13.9949 77.8348 14.266 77.8902 14.5397 77.8902C14.8135 77.8902 15.0846 77.8348 15.3374 77.7271C15.5902 77.6195 15.8197 77.4618 16.0127 77.263L20.317 72.8557C20.516 72.659 20.6747 72.4236 20.7839 72.1633C20.8931 71.9031 20.9505 71.6231 20.9529 71.3399C20.9553 71.0566 20.9026 70.7757 20.7979 70.5136C20.6931 70.2514 20.5384 70.0132 20.3428 69.8129C20.1472 69.6126 19.9146 69.4542 19.6585 69.347C19.4025 69.2397 19.1282 69.1858 18.8515 69.1882C18.5749 69.1907 18.3015 69.2495 18.0473 69.3613C17.7931 69.4731 17.5633 69.6356 17.3711 69.8394L13.0668 74.2466C12.6762 74.6466 12.4568 75.1891 12.4568 75.7548C12.4568 76.3204 12.6762 76.8629 13.0668 77.263ZM68.1184 69.8394C67.7278 70.2394 67.5084 70.7819 67.5084 71.3476C67.5084 71.9132 67.7278 72.4557 68.1184 72.8557L72.4227 77.263C72.6157 77.4618 72.8452 77.6195 73.098 77.7271C73.3508 77.8348 73.6219 77.8902 73.8957 77.8902C74.1694 77.8902 74.4405 77.8348 74.6933 77.7271C74.9461 77.6195 75.1756 77.4618 75.3686 77.263C75.7592 76.8629 75.9786 76.3204 75.9786 75.7548C75.9786 75.1891 75.7592 74.6466 75.3686 74.2466L71.0643 69.8394C70.6736 69.4395 70.1438 69.2148 69.5914 69.2148C69.0389 69.2148 68.5091 69.4395 68.1184 69.8394ZM16.0127 13.4713C15.8205 13.2675 15.5906 13.105 15.3364 12.9932C15.0823 12.8814 14.8089 12.8226 14.5322 12.8201C14.2556 12.8176 13.9813 12.8716 13.7252 12.9789C13.4692 13.0861 13.2366 13.2445 13.0409 13.4448C12.8453 13.6451 12.6906 13.8833 12.5859 14.1455C12.4811 14.4076 12.4284 14.6885 12.4308 14.9718C12.4332 15.255 12.4907 15.5349 12.5999 15.7952C12.7091 16.0555 12.8678 16.2909 13.0668 16.4876L17.3711 20.8949C17.5641 21.0936 17.7936 21.2514 18.0464 21.359C18.2992 21.4667 18.5703 21.5221 18.844 21.5221C19.1178 21.5221 19.3889 21.4667 19.6417 21.359C19.8944 21.2514 20.124 21.0936 20.317 20.8949C20.7076 20.4948 20.927 19.9523 20.927 19.3867C20.927 18.821 20.7076 18.2785 20.317 17.8785L16.0127 13.4713ZM30.4881 13.5566C30.8307 13.5563 31.1679 13.4696 31.4699 13.3041C31.7719 13.1385 32.0293 12.8993 32.2195 12.6076C32.4096 12.3158 32.5266 11.9806 32.56 11.6315C32.5934 11.2825 32.5423 10.9303 32.4111 10.6064L30.0819 4.84667C29.87 4.3239 29.4639 3.90874 28.9531 3.69251C28.4422 3.47628 27.8684 3.4767 27.3578 3.69367C26.8473 3.91064 26.4418 4.32639 26.2306 4.84946C26.0194 5.37253 26.0198 5.96008 26.2317 6.48285L28.561 12.2404C28.8943 13.0596 29.6693 13.5566 30.4881 13.5566ZM82.1959 26.9532L76.5707 29.336C76.3179 29.4433 76.0882 29.6005 75.8948 29.7987C75.7013 29.9969 75.5479 30.2321 75.4432 30.491C75.3386 30.7499 75.2847 31.0274 75.2848 31.3076C75.2849 31.5878 75.3388 31.8653 75.4436 32.1241C75.5484 32.383 75.702 32.6181 75.8955 32.8162C76.0891 33.0143 76.3188 33.1714 76.5717 33.2786C76.8245 33.3857 77.0955 33.4409 77.3692 33.4408C77.6429 33.4407 77.9138 33.3855 78.1666 33.2782L83.7918 30.8932C84.3023 30.6766 84.7079 30.2611 84.9193 29.7382C85.1307 29.2153 85.1305 28.6279 84.9189 28.1051C84.7073 27.5824 84.3015 27.1671 83.7908 26.9507C83.2802 26.7342 82.7065 26.7344 82.1959 26.9511V26.9532ZM10.2688 57.4539L4.64361 59.8389C4.39081 59.9462 4.16112 60.1034 3.96766 60.3016C3.7742 60.4997 3.62076 60.735 3.5161 60.9939C3.41144 61.2528 3.3576 61.5303 3.35767 61.8105C3.35774 62.0907 3.4117 62.3681 3.51649 62.627C3.72812 63.1497 4.13389 63.565 4.64455 63.7814C4.89741 63.8886 5.1684 63.9437 5.44206 63.9437C5.71572 63.9436 5.98669 63.8883 6.23949 63.781L11.8647 61.3961C12.1175 61.2888 12.3471 61.1316 12.5406 60.9334C12.7341 60.7352 12.8875 60.5 12.9922 60.2411C13.0968 59.9822 13.1507 59.7047 13.1506 59.4245C13.1505 59.1443 13.0966 58.8668 12.9918 58.608C12.887 58.3492 12.7334 58.114 12.5399 57.9159C12.3463 57.7178 12.1166 57.5607 11.8637 57.4535C11.6109 57.3464 11.3399 57.2912 11.0662 57.2913C10.7925 57.2914 10.5216 57.3466 10.2688 57.4539ZM57.9473 13.5566C58.766 13.5566 59.5411 13.0596 59.8744 12.2404L62.2036 6.48071C62.3083 6.22187 62.3621 5.94445 62.3621 5.6643C62.362 5.38415 62.3081 5.10675 62.2033 4.84795C62.0985 4.58915 61.945 4.35401 61.7515 4.15596C61.558 3.95791 61.3283 3.80082 61.0755 3.69367C60.8227 3.58651 60.5517 3.53139 60.2781 3.53145C60.0045 3.53151 59.7336 3.58675 59.4809 3.69402C59.2281 3.80128 58.9985 3.95847 58.805 4.15661C58.6116 4.35475 58.4582 4.58996 58.3535 4.8488L56.0243 10.6085C55.8935 10.9324 55.8427 11.2843 55.8764 11.633C55.91 11.9818 56.0271 12.3167 56.2172 12.6082C56.4073 12.8996 56.6646 13.1386 56.9663 13.304C57.2681 13.4694 57.605 13.5562 57.9473 13.5566ZM76.5728 61.3982L82.1959 63.7832C82.4487 63.8903 82.7197 63.9455 82.9933 63.9454C83.2669 63.9453 83.5378 63.8901 83.7905 63.7828C84.0433 63.6756 84.2729 63.5184 84.4664 63.3202C84.6598 63.1221 84.8132 62.8869 84.9179 62.628C85.0225 62.3692 85.0763 62.0918 85.0763 61.8116C85.0762 61.5315 85.0223 61.2541 84.9175 60.9953C84.8128 60.7365 84.6592 60.5013 84.4657 60.3033C84.2722 60.1052 84.0425 59.9481 83.7897 59.841L78.1645 57.4561C77.9117 57.3489 77.6408 57.2938 77.3672 57.2938C77.0936 57.2939 76.8227 57.3491 76.5699 57.4564C76.3172 57.5637 76.0875 57.7209 75.8941 57.919C75.7006 58.1171 75.5472 58.3523 75.4426 58.6112C75.3379 58.87 75.2841 59.1475 75.2841 59.4276C75.2842 59.7078 75.3382 59.9851 75.4429 60.2439C75.5477 60.5028 75.7012 60.7379 75.8947 60.9359C76.0882 61.134 76.3179 61.2911 76.5707 61.3982H76.5728ZM6.2374 26.9511C5.9846 26.8439 5.71366 26.7888 5.44006 26.7888C5.16645 26.7889 4.89553 26.8441 4.64278 26.9514C4.39002 27.0587 4.16037 27.2159 3.96695 27.414C3.77352 27.6121 3.6201 27.8473 3.51545 28.1062C3.4108 28.365 3.35697 28.6425 3.35702 28.9226C3.35708 29.2028 3.41103 29.4802 3.51579 29.739C3.62055 29.9978 3.77407 30.2329 3.96758 30.431C4.16109 30.629 4.3908 30.7861 4.64361 30.8932L10.2688 33.2782C10.5216 33.3853 10.7925 33.4405 11.0661 33.4404C11.3397 33.4403 11.6106 33.3851 11.8634 33.2778C12.1162 33.1706 12.3458 33.0134 12.5392 32.8152C12.7327 32.6171 12.8861 32.3819 12.9907 32.123C13.0954 31.8642 13.1492 31.5868 13.1492 31.3066C13.1491 31.0265 13.0951 30.7491 12.9904 30.4903C12.8856 30.2315 12.7321 29.9963 12.5386 29.7983C12.3451 29.6002 12.1154 29.4431 11.8626 29.336L6.2374 26.9511ZM14.2835 44.3837C14.1451 48.7467 14.9178 53.0896 16.55 57.1223C18.1822 61.1549 20.6364 64.7844 23.7483 67.768C26.1552 70.0674 28.0754 72.8482 29.3902 75.9382C30.7131 79.0634 31.3819 82.3635 31.3819 85.7468C31.3819 86.3125 31.6014 86.8551 31.9921 87.2552C32.3828 87.6552 32.9127 87.88 33.4653 87.88H54.9659C55.5185 87.88 56.0484 87.6552 56.4391 87.2552C56.8298 86.8551 57.0493 86.3125 57.0493 85.7468C57.0493 78.9696 59.8411 72.4014 64.7058 67.7275C67.6874 64.8584 70.0647 61.3954 71.6917 57.5513C73.3186 53.7072 74.1608 49.5631 74.1665 45.3735C74.1665 36.9047 70.8664 29.0181 64.8746 23.1731C61.9433 20.2908 58.4651 18.0557 54.6555 16.6063C50.846 15.1568 46.7863 14.524 42.7281 14.7469C27.2651 15.5042 14.7731 28.5232 14.2835 44.3837ZM39.1071 49.5653L43.0677 52.251C43.4086 52.4824 43.8086 52.6059 44.2177 52.6059C44.6268 52.6059 45.0268 52.4824 45.3677 52.251L49.3283 49.5632L46.6573 83.6136H41.7801L39.1092 49.5653H39.1071ZM42.9281 19.0091C50.0679 18.6571 56.8431 21.2319 62.0016 26.262C64.5398 28.7191 66.5591 31.6828 67.9348 34.9703C69.3104 38.2578 70.0132 41.7992 69.9997 45.3757C69.9944 48.9818 69.269 52.5486 67.8682 55.8572C66.4673 59.1658 64.4205 62.1461 61.8536 64.6151C56.6807 69.5919 53.5095 76.3673 52.9617 83.6136H50.8366L53.8242 45.5378C53.8553 45.1393 53.7764 44.7398 53.5965 44.385C53.4166 44.0302 53.1429 43.7343 52.8067 43.531C52.4705 43.3278 52.0853 43.2253 51.6949 43.2354C51.3046 43.2455 50.9249 43.3677 50.5991 43.588L44.2177 47.912L37.8363 43.588C37.5106 43.3668 37.1308 43.2439 36.7401 43.2334C36.3495 43.2229 35.9638 43.3252 35.6273 43.5287C35.2908 43.7321 35.017 44.0284 34.8373 44.3837C34.6576 44.7391 34.5793 45.139 34.6112 45.5378L37.5987 83.6136H35.4737C34.9498 76.3729 31.7783 69.6008 26.5922 64.6493C23.9137 62.0804 21.8016 58.9558 20.3972 55.4841C18.9927 52.0124 18.3283 48.2738 18.4482 44.5181C18.869 30.8655 29.6214 19.6619 42.9281 19.0091Z" fill="#DCDDDC"/>
</svg>
