<svg width="88" height="103" viewBox="0 0 88 103" fill="none" xmlns="http://www.w3.org/2000/svg">
<path d="M86.2012 34.0504L74.2009 17.6673V9.36198C74.2009 4.35603 70.2007 0.260254 65.3117 0.260254H23.0882C18.1992 0.260254 14.1991 4.35603 14.1991 9.36198V17.6673L2.19873 34.0504C1.30981 35.1881 0.865356 36.6672 0.865356 38.1462V95.8284C0.865356 99.5828 3.86545 102.655 7.53222 102.655H80.8677C84.5345 102.655 87.5346 99.5828 87.5346 95.8284V38.1462C87.5346 36.6672 87.0901 35.3019 86.2012 34.0504V34.0504ZM18.6437 9.36198C18.6437 6.859 20.6437 4.81112 23.0882 4.81112H65.3117C67.7562 4.81112 69.7563 6.859 69.7563 9.36198V16.1883H60.0893C58.8671 13.4578 56.2003 11.6374 53.0891 11.6374H35.3108C32.1996 11.6374 29.5329 13.4578 28.3106 16.1883H18.6437V9.36198ZM56.4226 19.6014C56.4226 21.4218 54.9781 23.0146 53.0891 23.0146H35.3108C33.4219 23.0146 31.9774 21.4218 31.9774 19.6014C31.9774 17.6673 33.4219 16.1883 35.3108 16.1883H53.0891C54.9781 16.1883 56.4226 17.6673 56.4226 19.6014ZM83.09 95.8284C83.09 97.0798 82.09 98.1038 80.8677 98.1038H7.53222C6.30996 98.1038 5.30993 97.0798 5.30993 95.8284V38.1462C5.30993 37.6911 5.42105 37.236 5.75439 36.7809L17.5325 20.7391H27.6439C28.1995 24.6074 31.4218 27.5654 35.3108 27.5654H53.0891C56.9781 27.5654 60.2005 24.6074 60.756 20.7391H70.8674L82.6456 36.7809C82.9789 37.1222 83.09 37.6911 83.09 38.1462V95.8284Z" fill="#DCDDDC"/>
<path d="M55.5193 37.8587C51.4655 37.666 39.0221 37.184 27.9925 52.9855C24.6929 57.7073 17.811 69.6543 22.9961 80.7345C22.0438 81.7856 21.101 82.8458 20.168 83.9148C19.6024 84.5878 19.6024 85.6485 20.2626 86.2266C20.5451 86.5153 20.9222 86.612 21.2992 86.612C21.7703 86.612 22.1479 86.4187 22.525 86.0333C24.9759 83.2395 29.4068 78.4222 34.2147 73.3155C37.3253 75.2425 40.1539 76.0132 43.6421 76.0132C44.3962 76.0132 45.1504 76.0132 45.999 75.9161C46.8477 75.82 47.5062 75.0492 47.4133 74.1824C47.3193 73.3155 46.5647 72.6408 45.7165 72.7369C42.1338 73.0262 39.4943 72.5436 36.5723 70.9071C43.7366 63.391 51.2786 55.4905 54.7668 51.9259C55.4264 51.2512 55.4264 50.2878 54.7668 49.6131C54.1061 48.9389 53.1634 48.9389 52.5049 49.6131C49.8643 52.3113 45.3389 57.0326 40.343 62.2359C40.0604 60.0191 40.249 57.2253 40.9086 55.7798C41.2857 54.9124 40.9086 53.949 40.1544 53.5636C39.3063 53.1782 38.3636 53.5636 37.9866 54.3343C36.7613 56.936 36.6668 61.8494 37.704 64.8364V64.9331C33.3672 69.4616 28.9368 74.1829 25.4487 78.0362C21.9605 68.7869 27.8056 58.8629 30.6337 54.8169C39.5877 41.9053 49.1085 40.8458 55.4253 41.1345C58.3479 41.2312 61.365 42.7727 63.2498 44.9884C64.287 46.2406 65.5128 48.1681 65.3237 50.7692C65.1346 53.8529 62.9667 56.55 61.1748 58.2843C57.6877 61.5606 53.2574 63.7763 48.6369 64.6437C47.7893 64.8364 47.1297 65.6083 47.3188 66.5712C47.5057 67.4375 48.2615 68.1128 49.2036 67.9195C52.3147 67.4375 55.4253 66.2808 58.1599 64.6437C59.5742 67.2448 61.1754 71.9667 58.7255 76.4958C55.6144 82.18 47.0346 85.8412 41.096 84.0109C40.2479 83.7216 37.0422 82.6609 33.6486 80.2525C32.895 79.7711 31.9518 79.9632 31.3862 80.7345C30.9146 81.5059 31.1036 82.4693 31.8572 83.0468C34.4027 84.7811 37.5138 86.4193 40.1533 87.1895C41.4736 87.5754 42.9814 87.8647 44.4908 87.8647C51.0901 87.8647 58.443 83.9154 61.5535 78.2295C64.0039 73.7009 63.8165 68.2094 60.8928 63.0061C61.7426 62.3314 62.6847 61.6573 63.4383 60.8865C66.5494 57.8995 68.3419 54.527 68.6233 51.2512C68.8124 48.3608 67.7747 45.4704 65.7019 43.0615C64.4806 41.4855 62.9356 40.2027 61.1762 39.3037C59.4168 38.4047 57.4857 37.9115 55.5193 37.8587Z" fill="#DCDDDC"/>
</svg>
