<svg width="55" height="103" viewBox="0 0 55 103" fill="none" xmlns="http://www.w3.org/2000/svg">
<path d="M20.2387 102.415C19.5054 102.415 18.7542 102.415 18.003 102.287C13.6991 101.747 9.68723 99.7787 6.58256 96.684C3.47789 93.5893 1.45177 89.5391 0.814854 85.1542C0.329966 81.7516 0.716042 78.2786 1.93542 75.074C3.1548 71.8695 5.16584 69.0427 7.77237 66.8695V12.8199C7.77237 9.42528 9.09143 6.16973 11.4394 3.7694C13.7873 1.36906 16.9718 0.0205688 20.2923 0.0205688C23.6128 0.0205688 26.7973 1.36906 29.1453 3.7694C31.4932 6.16973 32.8123 9.42528 32.8123 12.8199V66.8146C35.047 68.6946 36.8438 71.0601 38.072 73.7391C39.3003 76.4181 39.9291 79.3432 39.9129 82.3018C39.9129 87.6361 37.8401 92.752 34.1504 96.524C30.4608 100.296 25.4566 102.415 20.2387 102.415ZM20.2387 3.67751C17.8669 3.67751 15.5922 4.64072 13.9151 6.35525C12.238 8.06977 11.2958 10.3952 11.2958 12.8199V67.674C11.2958 67.9579 11.2312 68.2378 11.107 68.4917C10.9828 68.7456 10.8026 68.9665 10.5804 69.1368C7.87762 71.2091 5.88114 74.0983 4.87379 77.3951C3.86643 80.6918 3.89926 84.2291 4.96764 87.5057C6.03601 90.7823 8.08576 93.6323 10.8265 95.6518C13.5673 97.6713 16.8602 98.758 20.2387 98.758C23.6172 98.758 26.91 97.6713 29.6508 95.6518C32.3916 93.6323 34.4413 90.7823 35.5097 87.5057C36.5781 84.2291 36.6109 80.6918 35.6036 77.3951C34.5962 74.0983 32.5997 71.2091 29.8969 69.1368C29.6748 68.9665 29.4945 68.7456 29.3703 68.4917C29.2461 68.2378 29.1815 67.9579 29.1815 67.674V12.8199C29.1815 10.3952 28.2393 8.06977 26.5622 6.35525C24.8851 4.64072 22.6105 3.67751 20.2387 3.67751ZM20.2387 95.1011C17.3991 95.0971 14.6453 94.1065 12.429 92.2918C10.2127 90.477 8.66569 87.946 8.04179 85.1141C7.41788 82.2821 7.75417 79.3175 8.99545 76.7066C10.2367 74.0958 12.3093 71.9939 14.873 70.7458V36.59C14.873 35.1352 15.4383 33.7399 16.4446 32.7112C17.4508 31.6825 18.8156 31.1046 20.2387 31.1046C21.6617 31.1046 23.0265 31.6825 24.0328 32.7112C25.0391 33.7399 25.6044 35.1352 25.6044 36.59V70.7458C28.1681 71.9939 30.2406 74.0958 31.4819 76.7066C32.7232 79.3175 33.0595 82.2821 32.4356 85.1141C31.8116 87.946 30.2646 90.477 28.0483 92.2918C25.8321 94.1065 23.0782 95.0971 20.2387 95.1011ZM20.2387 34.7615C19.7643 34.7615 19.3094 34.9542 18.974 35.2971C18.6385 35.64 18.4501 36.1051 18.4501 36.59V71.9709C18.4486 72.3489 18.3326 72.7171 18.118 73.0249C17.9034 73.3327 17.6008 73.565 17.2518 73.6897C16.0205 74.1319 14.8988 74.8443 13.9654 75.7768C13.0321 76.7094 12.3097 77.8394 11.849 79.0877C11.3883 80.336 11.2004 81.6723 11.2985 83.0027C11.3967 84.3331 11.7784 85.6254 12.4171 86.789C13.0557 87.9525 13.9357 88.959 14.9953 89.7379C16.0549 90.5168 17.2684 91.0492 18.5506 91.2976C19.8329 91.5461 21.1528 91.5046 22.4177 91.1762C23.6826 90.8477 24.8618 90.2402 25.8727 89.3963C26.9055 88.5397 27.7385 87.4584 28.3109 86.2311C28.8833 85.0038 29.1807 83.6614 29.1815 82.3018C29.1804 80.4132 28.6073 78.5713 27.5408 77.0292C26.4743 75.4871 24.9669 74.3205 23.2256 73.6897C22.8766 73.565 22.5739 73.3327 22.3593 73.0249C22.1447 72.7171 22.0287 72.3489 22.0272 71.9709V36.59C22.0272 36.1051 21.8388 35.64 21.5034 35.2971C21.168 34.9542 20.713 34.7615 20.2387 34.7615ZM54.2214 0.0205688H36.3358V3.67751H54.2214V0.0205688ZM54.2214 7.33445H43.49V10.9914H54.2214V7.33445ZM54.2214 14.6483H36.3358V18.3053H54.2214V14.6483ZM54.2214 21.9622H43.49V25.6192H54.2214V21.9622ZM54.2214 29.2761H36.3358V32.9331H54.2214V29.2761ZM54.2214 36.59H43.49V40.2469H54.2214V36.59Z" fill="#DCDDDC"/>
</svg>
