<svg width="78" height="103" viewBox="0 0 78 103" fill="none" xmlns="http://www.w3.org/2000/svg">
<path d="M39.2366 102.655C29.0696 102.655 19.3191 98.487 12.13 91.0684C4.94091 83.6497 0.902115 73.5879 0.902115 63.0964C0.902115 32.1012 36.3051 2.06006 37.8159 0.780231C38.2177 0.443921 38.7193 0.260376 39.2366 0.260376C39.7539 0.260376 40.2555 0.443921 40.6572 0.780231C42.168 2.06006 77.571 32.1012 77.571 63.0964C77.571 68.2912 76.5795 73.4353 74.653 78.2347C72.7265 83.0342 69.9028 87.3951 66.3431 91.0684C62.7835 94.7417 58.5575 97.6556 53.9065 99.6436C49.2556 101.632 44.2707 102.655 39.2366 102.655ZM39.2366 5.64359C32.6521 11.6006 5.41205 37.6626 5.41205 63.0964C5.41205 72.3536 8.9757 81.2317 15.319 87.7776C21.6624 94.3234 30.2658 98.0008 39.2366 98.0008C48.2074 98.0008 56.8108 94.3234 63.1541 87.7776C69.4975 81.2317 73.0611 72.3536 73.0611 63.0964C73.0611 37.6626 45.8211 11.6006 39.2366 5.64359ZM39.2366 82.0146C33.8541 82.0146 28.692 79.8081 24.886 75.8806C21.0801 71.9531 18.9419 66.6263 18.9419 61.0719H14.4319C14.4319 67.8605 17.0453 74.3712 21.697 79.1715C26.3488 83.9717 32.658 86.6685 39.2366 86.6685V82.0146Z" fill="#DCDDDC"/>
</svg>
